monospace-italic.ufo
<glyph name="ampersand" format="1">
  <advance width="545"/>
  <unicode hex="0026"/>
  <outline>
    <contour>
      <point x="545.0" y="0.0" type="line"/>
      <point x="227" y="427" type="line"/>
      <point x="227" y="427"/>
      <point x="166" y="499"/>
      <point x="166" y="535" type="curve" smooth="yes"/>
      <point x="166" y="585"/>
      <point x="189" y="628"/>
      <point x="246" y="628" type="curve" smooth="yes"/>
      <point x="290" y="628"/>
      <point x="336" y="603"/>
      <point x="336" y="541" type="curve" smooth="yes"/>
      <point x="336" y="484"/>
      <point x="267" y="450"/>
      <point x="267" y="450" type="curve"/>
      <point x="152" y="382" type="line"/>
      <point x="152" y="382"/>
      <point x="31" y="320"/>
      <point x="31.0" y="178.0" type="curve" smooth="yes"/>
      <point x="31" y="90"/>
      <point x="73.0" y="-6.0"/>
      <point x="220.0" y="-6.0" type="curve" smooth="yes"/>
      <point x="408.0" y="-6.0"/>
      <point x="484" y="172"/>
      <point x="484" y="263" type="curve"/>
      <point x="402" y="263" type="line"/>
      <point x="402" y="263"/>
      <point x="397.0" y="66.0"/>
      <point x="217.0" y="66.0" type="curve"/>
      <point x="217.0" y="66.0"/>
      <point x="112.0" y="64.0"/>
      <point x="112.0" y="182.0" type="curve" smooth="yes"/>
      <point x="112.0" y="281.0"/>
      <point x="191.0" y="327.0"/>
      <point x="191.0" y="327.0" type="curve"/>
      <point x="321.0" y="403.0" type="line"/>
      <point x="321.0" y="403.0"/>
      <point x="411.0" y="453.0"/>
      <point x="411.0" y="541.0" type="curve" smooth="yes"/>
      <point x="411.0" y="620.0"/>
      <point x="362" y="695"/>
      <point x="246" y="695" type="curve" smooth="yes"/>
      <point x="148" y="695"/>
      <point x="83" y="639"/>
      <point x="83.0" y="532.0" type="curve" smooth="yes"/>
      <point x="83" y="455"/>
      <point x="149.0" y="382.0"/>
      <point x="149.0" y="382.0" type="curve"/>
      <point x="431.0" y="0.0" type="line"/>
    </contour>
  </outline>
</glyph>
<glyph name="parenleft" format="1">
  <advance width="545"/>
  <unicode hex="0028"/>
  <outline>
    <contour>
      <point x="403" y="630" type="line"/>
      <point x="403" y="630"/>
      <point x="238" y="495"/>
      <point x="238" y="244" type="curve" smooth="yes"/>
      <point x="238" y="-6"/>
      <point x="402" y="-152"/>
      <point x="402" y="-152" type="curve"/>
      <point x="338" y="-202" type="line"/>
      <point x="338" y="-202"/>
      <point x="142" y="-10"/>
      <point x="142" y="244" type="curve" smooth="yes"/>
      <point x="142" y="499"/>
      <point x="338" y="690"/>
      <point x="338" y="690" type="curve"/>
    </contour>
  </outline>
</glyph>
<glyph name="parenright" format="1">
  <advance width="545"/>
  <unicode hex="0029"/>
  <outline>
    <contour>
      <point x="151" y="635" type="line"/>
      <point x="151" y="635"/>
      <point x="304" y="498"/>
      <point x="304" y="246" type="curve" smooth="yes"/>
      <point x="304" y="-6"/>
      <point x="152" y="-152"/>
      <point x="152" y="-152" type="curve"/>
      <point x="211" y="-202" type="line"/>
      <point x="211" y="-202"/>
      <point x="394" y="-10"/>
      <point x="394" y="246" type="curve" smooth="yes"/>
      <point x="394" y="502"/>
      <point x="211" y="695"/>
      <point x="211" y="695" type="curve"/>
    </contour>
  </outline>
</glyph>
<glyph name="three" format="1">
  <advance width="545"/>
  <unicode hex="0033"/>
  <outline>
    <contour>
      <point x="75" y="82" type="curve"/>
      <point x="75" y="8" type="line"/>
      <point x="75" y="8"/>
      <point x="133" y="-6"/>
      <point x="241" y="-6" type="curve" smooth="yes"/>
      <point x="382" y="-6"/>
      <point x="469" y="65"/>
      <point x="469" y="177" type="curve" smooth="yes"/>
      <point x="469" y="248"/>
      <point x="413" y="336"/>
      <point x="332" y="336" type="curve"/>
      <point x="406" y="336"/>
      <point x="439" y="419"/>
      <point x="439" y="476" type="curve" smooth="yes"/>
      <point x="439" y="593"/>
      <point x="365" y="646"/>
      <point x="241" y="646" type="curve" smooth="yes"/>
      <point x="117" y="646"/>
      <point x="75" y="626"/>
      <point x="75" y="626" type="curve"/>
      <point x="75" y="556" type="line"/>
      <point x="75" y="556"/>
      <point x="131" y="579"/>
      <point x="225" y="579" type="curve" smooth="yes"/>
      <point x="328" y="579"/>
      <point x="359" y="536"/>
      <point x="359" y="482" type="curve" smooth="yes"/>
      <point x="359" y="404"/>
      <point x="323" y="369"/>
      <point x="255" y="369" type="curve" smooth="yes"/>
      <point x="174" y="369" type="line"/>
      <point x="174" y="293" type="line"/>
      <point x="261" y="293" type="line" smooth="yes"/>
      <point x="335" y="293"/>
      <point x="381" y="237"/>
      <point x="381" y="174" type="curve" smooth="yes"/>
      <point x="381" y="106"/>
      <point x="344" y="65"/>
      <point x="243" y="65" type="curve" smooth="yes"/>
      <point x="142" y="65"/>
      <point x="75" y="82"/>
    </contour>
  </outline>
</glyph>
<glyph name="seven" format="1">
  <advance width="545"/>
  <unicode hex="0037"/>
  <outline>
    <contour>
      <point x="120" y="0" type="move"/>
      <point x="388" y="551" type="line"/>
      <point x="53" y="551" type="line"/>
      <point x="53" y="640" type="line"/>
      <point x="485" y="640" type="line"/>
      <point x="485" y="550" type="line" smooth="yes"/>
      <point x="228" y="0" type="line"/>
    </contour>
  </outline>
</glyph>
<glyph name="colon" format="1">
  <advance width="545"/>
  <unicode hex="003A"/>
  <outline>
    <contour>
      <point x="337" y="166" type="line"/>
      <point x="207" y="166" type="line"/>
      <point x="207" y="0" type="line"/>
      <point x="337" y="0" type="line"/>
    </contour>
    <contour>
      <point x="337" y="490" type="line"/>
      <point x="207" y="490" type="line"/>
      <point x="207" y="324" type="line"/>
      <point x="337" y="324" type="line"/>
    </contour>
  </outline>
</glyph>
<glyph name="question" format="1">
  <advance width="545"/>
  <unicode hex="003F"/>
  <outline>
    <contour>
      <point x="223" y="279" type="line" smooth="yes"/>
      <point x="223" y="400"/>
      <point x="382" y="421"/>
      <point x="382" y="503" type="curve" smooth="yes"/>
      <point x="382" y="621"/>
      <point x="244" y="613"/>
      <point x="244" y="613" type="curve"/>
      <point x="153" y="613"/>
      <point x="60" y="558"/>
      <point x="60" y="558" type="curve"/>
      <point x="60" y="635" type="line"/>
      <point x="60" y="635"/>
      <point x="120" y="690"/>
      <point x="244" y="690" type="curve" smooth="yes"/>
      <point x="347" y="690"/>
      <point x="465" y="634"/>
      <point x="465" y="505" type="curve" smooth="yes"/>
      <point x="465" y="399"/>
      <point x="307" y="367"/>
      <point x="307" y="279" type="curve" smooth="yes"/>
      <point x="307" y="244" type="line"/>
      <point x="223" y="244" type="line"/>
    </contour>
    <contour>
      <point x="307" y="116" type="line"/>
      <point x="223" y="116" type="line"/>
      <point x="223" y="0" type="line"/>
      <point x="307" y="0" type="line"/>
    </contour>
  </outline>
</glyph>
<glyph name="F" format="1">
  <advance width="545"/>
  <unicode hex="0046"/>
  <outline>
    <contour>
      <point x="175" y="1" type="line"/>
      <point x="80" y="1" type="line"/>
      <point x="80" y="638" type="line"/>
      <point x="175" y="638" type="line"/>
    </contour>
    <contour>
      <point x="486" y="570" type="line"/>
      <point x="80" y="570" type="line"/>
      <point x="80" y="640" type="line"/>
      <point x="486" y="640" type="line"/>
    </contour>
    <contour>
      <point x="380" y="293" type="line"/>
      <point x="80" y="293" type="line"/>
      <point x="80" y="363" type="line"/>
      <point x="380" y="363" type="line"/>
    </contour>
  </outline>
</glyph>
<glyph name="H" format="1">
  <advance width="545"/>
  <unicode hex="0048"/>
  <outline>
    <contour>
      <point x="496" y="0" type="line"/>
      <point x="399" y="0" type="line"/>
      <point x="399" y="640" type="line"/>
      <point x="496" y="640" type="line"/>
    </contour>
    <contour>
      <point x="138" y="0" type="line"/>
      <point x="41" y="0" type="line"/>
      <point x="41" y="640" type="line"/>
      <point x="138" y="640" type="line"/>
    </contour>
    <contour>
      <point x="449" y="292" type="line"/>
      <point x="41" y="292" type="line"/>
      <point x="41" y="362" type="line"/>
      <point x="449" y="362" type="line"/>
    </contour>
  </outline>
</glyph>
<glyph name="I" format="1">
  <advance width="545"/>
  <unicode hex="0049"/>
  <outline>
    <contour>
      <point x="306" y="0" type="line"/>
      <point x="209" y="0" type="line"/>
      <point x="209" y="637" type="line"/>
      <point x="306" y="637" type="line"/>
    </contour>
    <contour>
      <point x="460" y="569" type="line"/>
      <point x="54" y="569" type="line"/>
      <point x="54" y="640" type="line"/>
      <point x="460" y="640" type="line"/>
    </contour>
    <contour>
      <point x="460" y="0" type="line"/>
      <point x="54" y="0" type="line"/>
      <point x="54" y="71" type="line"/>
      <point x="460" y="71" type="line"/>
    </contour>
  </outline>
</glyph>
<glyph name="J" format="1">
  <advance width="545"/>
  <unicode hex="004A"/>
  <outline>
    <contour>
      <point x="493" y="640" type="line"/>
      <point x="156" y="640" type="line"/>
      <point x="156" y="569" type="line"/>
      <point x="299" y="569" type="line"/>
      <point x="299" y="183" type="line" smooth="yes"/>
      <point x="299" y="101"/>
      <point x="252" y="71"/>
      <point x="184" y="71" type="curve" smooth="yes"/>
      <point x="104" y="71"/>
      <point x="48" y="114"/>
      <point x="48" y="114" type="curve"/>
      <point x="48" y="31" type="line"/>
      <point x="48" y="31"/>
      <point x="98" y="-6"/>
      <point x="184" y="-6" type="curve" smooth="yes"/>
      <point x="374" y="-6"/>
      <point x="396" y="115"/>
      <point x="396" y="245" type="curve" smooth="yes"/>
      <point x="396" y="569" type="line"/>
      <point x="493" y="569" type="line"/>
    </contour>
  </outline>
</glyph>
<glyph name="V" format="1">
  <advance width="545"/>
  <unicode hex="0056"/>
  <outline>
    <contour>
      <point x="434" y="640" type="line"/>
      <point x="284" y="132" type="line"/>
      <point x="113" y="640" type="line"/>
      <point x="28" y="640" type="line"/>
      <point x="245" y="0" type="line"/>
      <point x="333" y="0" type="line"/>
      <point x="519" y="640" type="line"/>
    </contour>
  </outline>
</glyph>
<glyph name="Z" format="1">
  <advance width="545"/>
  <unicode hex="005A"/>
  <outline>
    <contour>
      <point x="151" y="82" type="line"/>
      <point x="489" y="558" type="line"/>
      <point x="489" y="558" type="line"/>
      <point x="489" y="640" type="line"/>
      <point x="57" y="640" type="line"/>
      <point x="57" y="558" type="line"/>
      <point x="379" y="558" type="line"/>
      <point x="48" y="82" type="line"/>
      <point x="48" y="0" type="line"/>
      <point x="498" y="0" type="line"/>
      <point x="498" y="82" type="line"/>
    </contour>
  </outline>
</glyph>
<glyph name="backslash" format="1">
  <advance width="545"/>
  <unicode hex="005C"/>
  <outline>
    <contour>
      <point x="57" y="695" type="line"/>
      <point x="152" y="695" type="line"/>
      <point x="487" y="-98" type="line"/>
      <point x="393" y="-98" type="line"/>
    </contour>
  </outline>
</glyph>
<glyph name="a" format="1">
  <advance width="545"/>
  <unicode hex="0061"/>
  <outline>
    <contour>
      <point x="426" y="239" type="line"/>
      <point x="414" y="239"/>
      <point x="380" y="243"/>
      <point x="341" y="243" type="curve" smooth="yes"/>
      <point x="268" y="243"/>
      <point x="175" y="229"/>
      <point x="160" y="152" type="curve" smooth="yes"/>
      <point x="158" y="142"/>
      <point x="157" y="133"/>
      <point x="157" y="125" type="curve" smooth="yes"/>
      <point x="157" y="71"/>
      <point x="199" y="58"/>
      <point x="243" y="58" type="curve" smooth="yes"/>
      <point x="315" y="58"/>
      <point x="405" y="113"/>
      <point x="405" y="113" type="curve"/>
      <point x="413" y="56" type="line"/>
      <point x="413" y="56"/>
      <point x="335" y="-5"/>
      <point x="203" y="-5" type="curve" smooth="yes"/>
      <point x="125" y="-5"/>
      <point x="74" y="51"/>
      <point x="74" y="119" type="curve" smooth="yes"/>
      <point x="74" y="127"/>
      <point x="75" y="136"/>
      <point x="77" y="145" type="curve" smooth="yes"/>
      <point x="103" y="278"/>
      <point x="203" y="305"/>
      <point x="293" y="305" type="curve" smooth="yes"/>
      <point x="355" y="305"/>
      <point x="413" y="292"/>
      <point x="439" y="292" type="curve"/>
    </contour>
    <contour>
      <point x="151" y="437" type="line"/>
      <point x="151" y="437"/>
      <point x="232" y="500"/>
      <point x="341" y="500" type="curve" smooth="yes"/>
      <point x="430" y="500"/>
      <point x="524" y="471"/>
      <point x="524" y="365" type="curve" smooth="yes"/>
      <point x="524" y="352"/>
      <point x="522" y="338"/>
      <point x="519" y="322" type="curve" smooth="yes"/>
      <point x="496" y="201"/>
      <point x="457" y="1"/>
      <point x="457" y="1" type="curve"/>
      <point x="372" y="1" type="line"/>
      <point x="372" y="1"/>
      <point x="423" y="262"/>
      <point x="434" y="319" type="curve" smooth="yes"/>
      <point x="436" y="329"/>
      <point x="437" y="338"/>
      <point x="437" y="347" type="curve" smooth="yes"/>
      <point x="437" y="413"/>
      <point x="382" y="433"/>
      <point x="325" y="433" type="curve" smooth="yes"/>
      <point x="232" y="433"/>
      <point x="185" y="381"/>
      <point x="185" y="381" type="curve"/>
    </contour>
  </outline>
</glyph>
<glyph name="f" format="1">
  <advance width="545"/>
  <unicode hex="0066"/>
  <outline>
    <contour>
      <point x="481.0" y="346.0" type="line"/>
      <point x="75.0" y="346.0" type="line"/>
      <point x="75.0" y="416.0" type="line"/>
      <point x="481.0" y="416.0" type="line"/>
    </contour>
    <contour>
      <point x="280.0" y="499.0" type="curve" smooth="yes"/>
      <point x="280.0" y="0.0" type="line"/>
      <point x="196.0" y="0.0" type="line"/>
      <point x="196.0" y="0.0"/>
      <point x="196.0" y="420.0"/>
      <point x="196.0" y="499.0" type="curve" smooth="yes"/>
      <point x="196.0" y="593.0"/>
      <point x="230.0" y="695.0"/>
      <point x="348.0" y="695.0" type="curve" smooth="yes"/>
      <point x="433.0" y="695.0"/>
      <point x="467.0" y="675.0"/>
      <point x="467.0" y="675.0" type="curve"/>
      <point x="467.0" y="603.0" type="line"/>
      <point x="467.0" y="603.0"/>
      <point x="430.0" y="624.0"/>
      <point x="353.0" y="624.0" type="curve" smooth="yes"/>
      <point x="311.0" y="624.0"/>
      <point x="280.0" y="586.0"/>
    </contour>
  </outline>
</glyph>
<glyph name="h" format="1">
  <advance width="545"/>
  <unicode hex="0068"/>
  <outline>
    <contour>
      <point x="76" y="690" type="line"/>
      <point x="76" y="0" type="line"/>
      <point x="160" y="0" type="line"/>
      <point x="160" y="690" type="line"/>
    </contour>
    <contour>
      <point x="482" y="237" type="line" smooth="yes"/>
      <point x="482" y="430"/>
      <point x="401" y="499"/>
      <point x="301" y="499" type="curve" smooth="yes"/>
      <point x="208" y="499"/>
      <point x="132" y="369"/>
      <point x="132" y="369" type="curve"/>
      <point x="141" y="308" type="line"/>
      <point x="141" y="308"/>
      <point x="192" y="422"/>
      <point x="290" y="422" type="curve" smooth="yes"/>
      <point x="359" y="422"/>
      <point x="399" y="363"/>
      <point x="399" y="234" type="curve" smooth="yes"/>
      <point x="399" y="0" type="line"/>
      <point x="482" y="0" type="line"/>
    </contour>
  </outline>
</glyph>
<glyph name="k" format="1">
  <advance width="545"/>
  <unicode hex="006B"/>
  <outline>
    <contour>
      <point x="374" y="0" type="line"/>
      <point x="485" y="0" type="line"/>
      <point x="259" y="314" type="line"/>
      <point x="200" y="251" type="line"/>
    </contour>
    <contour>
      <point x="79" y="690" type="line"/>
      <point x="79" y="0" type="line"/>
      <point x="163" y="0" type="line"/>
      <point x="163" y="690" type="line"/>
    </contour>
    <contour>
      <point x="374" y="490" type="line"/>
      <point x="111" y="226" type="line"/>
      <point x="162" y="167" type="line"/>
      <point x="485" y="490" type="line"/>
    </contour>
  </outline>
</glyph>
<glyph name="r" format="1">
  <advance width="545"/>
  <unicode hex="0072"/>
  <outline>
    <contour>
      <point x="93" y="490" type="line"/>
      <point x="93" y="0" type="line"/>
      <point x="177" y="0" type="line"/>
      <point x="177" y="490" type="line"/>
    </contour>
    <contour>
      <point x="497" y="307" type="line"/>
      <point x="500" y="428"/>
      <point x="421" y="497"/>
      <point x="321" y="499" type="curve" smooth="yes"/>
      <point x="227" y="502"/>
      <point x="148" y="374"/>
      <point x="148" y="374" type="curve"/>
      <point x="156" y="312" type="line"/>
      <point x="156" y="312"/>
      <point x="221" y="425"/>
      <point x="318" y="422" type="curve" smooth="yes"/>
      <point x="387" y="421"/>
      <point x="413" y="364"/>
      <point x="411" y="307" type="curve"/>
    </contour>
  </outline>
</glyph>
<glyph name="braceleft" format="1">
  <advance width="545"/>
  <unicode hex="007B"/>
  <outline>
    <contour>
      <point x="324.0" y="485.0" type="curve" smooth="yes"/>
      <point x="324.0" y="585.0"/>
      <point x="344.0" y="624.0"/>
      <point x="464.0" y="624.0" type="curve"/>
      <point x="464.0" y="695.0" type="line"/>
      <point x="345.0" y="695.0"/>
      <point x="242.0" y="676.0"/>
      <point x="242.0" y="485.0" type="curve" smooth="yes"/>
      <point x="242.0" y="304.0"/>
      <point x="224.0" y="285.0"/>
      <point x="82.0" y="285.0" type="curve"/>
      <point x="82.0" y="285.0"/>
      <point x="82.0" y="217.0"/>
      <point x="82.0" y="217.0" type="curve"/>
      <point x="224.0" y="207.0"/>
      <point x="242.0" y="188.0"/>
      <point x="242.0" y="7.0" type="curve" smooth="yes"/>
      <point x="242.0" y="-184.0"/>
      <point x="345.0" y="-203.0"/>
      <point x="464.0" y="-203.0" type="curve"/>
      <point x="464.0" y="-132.0" type="line"/>
      <point x="344.0" y="-132.0"/>
      <point x="324.0" y="-93.0"/>
      <point x="324.0" y="7.0" type="curve" smooth="yes"/>
      <point x="324.0" y="169.0"/>
      <point x="310.0" y="224.0"/>
      <point x="206.0" y="246.0" type="curve"/>
      <point x="310.0" y="271.0"/>
      <point x="324.0" y="343.0"/>
    </contour>
  </outline>
</glyph>
<glyph name="agrave" format="1">
  <advance width="545"/>
  <unicode hex="00E0"/>
  <outline>
    <contour>
      <point x="391" y="303" type="curve"/>
      <point x="391" y="251" type="line"/>
      <point x="356" y="251"/>
      <point x="141" y="272"/>
      <point x="141" y="153" type="curve" smooth="yes"/>
      <point x="141" y="76"/>
      <point x="188" y="58"/>
      <point x="239" y="58" type="curve" smooth="yes"/>
      <point x="311" y="58"/>
      <point x="393" y="113"/>
      <point x="393" y="113" type="curve"/>
      <point x="413" y="56" type="line"/>
      <point x="413" y="56"/>
      <point x="343" y="-5"/>
      <point x="211" y="-5" type="curve" smooth="yes"/>
      <point x="123" y="-5"/>
      <point x="62" y="54"/>
      <point x="62" y="133" type="curve" smooth="yes"/>
      <point x="62" y="357"/>
      <point x="327" y="303"/>
    </contour>
    <contour>
      <point x="82" y="434" type="line"/>
      <point x="82" y="434"/>
      <point x="171" y="500"/>
      <point x="264" y="500" type="curve" smooth="yes"/>
      <point x="364" y="500"/>
      <point x="467" y="463"/>
      <point x="467" y="322" type="curve" smooth="yes"/>
      <point x="467" y="201"/>
      <point x="467" y="1"/>
      <point x="467" y="1" type="curve"/>
      <point x="382" y="1" type="line"/>
      <point x="382" y="1"/>
      <point x="382" y="262"/>
      <point x="382" y="319" type="curve" smooth="yes"/>
      <point x="382" y="408"/>
      <point x="324" y="433"/>
      <point x="260" y="433" type="curve" smooth="yes"/>
      <point x="167" y="433"/>
      <point x="119" y="380"/>
      <point x="119" y="380" type="curve"/>
    </contour>
    <contour>
      <point x="162" y="628" type="line"/>
      <point x="201" y="692" type="line"/>
      <point x="368" y="588" type="line"/>
      <point x="343" y="547" type="line"/>
    </contour>
  </outline>
</glyph>
<glyph name="divide" format="1">
  <advance width="545"/>
  <unicode hex="00F7"/>
  <outline>
    <contour>
      <point x="337" y="470"/>
      <point x="308" y="499"/>
      <point x="272" y="499" type="curve" smooth="yes"/>
      <point x="235" y="499"/>
      <point x="206" y="470"/>
      <point x="206" y="434" type="curve" smooth="yes"/>
      <point x="206" y="397"/>
      <point x="235" y="368"/>
      <point x="272" y="368" type="curve" smooth="yes"/>
      <point x="308" y="368"/>
      <point x="337" y="397"/>
      <point x="337" y="434" type="curve" smooth="yes"/>
    </contour>
    <contour>
      <point x="337" y="138" type="curve" smooth="yes"/>
      <point x="337" y="174"/>
      <point x="308" y="203"/>
      <point x="272" y="203" type="curve" smooth="yes"/>
      <point x="235" y="203"/>
      <point x="206" y="174"/>
      <point x="206" y="138" type="curve" smooth="yes"/>
      <point x="206" y="101"/>
      <point x="235" y="72"/>
      <point x="272" y="72" type="curve" smooth="yes"/>
      <point x="308" y="72"/>
      <point x="337" y="101"/>
    </contour>
    <contour>
      <point x="476" y="251" type="line"/>
      <point x="67" y="251" type="line"/>
      <point x="67" y="321" type="line"/>
      <point x="476" y="321" type="line"/>
    </contour>
  </outline>
</glyph>
